<svg width="155" height="16" fill="none" xmlns="http://www.w3.org/2000/svg"><g id="logo" clip-path="url('#clip0_863_370')" fill="#F5F5F5"><path id="Vector" d="M151.92.145c1.256-.03 2.366 1.08 2.336 2.365.03 1.256-1.08 2.365-2.336 2.336-1.256.029-2.366-1.08-2.336-2.336-.03-1.285 1.08-2.394 2.336-2.365Zm0 .526c-.964-.03-1.781.817-1.781 1.81-.03.963.817 1.81 1.781 1.78.964.03 1.781-.817 1.781-1.78 0-.993-.817-1.81-1.781-1.81Zm-.847.642h.993c.526 0 .818.263.818.642a.607.607 0 0 1-.467.613c.292 0 .408.088.408.35v.73h-.584v-.612c0-.176-.058-.234-.263-.234h-.379v.847h-.584V1.313h.058Zm.905 1.022c.205 0 .322-.088.322-.292 0-.175-.117-.263-.351-.263h-.321v.555h.35Z"/><g id="Group"><path id="Vector_2" d="M0 15.678 6.104.29h4.76l6.074 15.387h-3.796l-1.49-3.767H5.228l-1.46 3.767H0ZM6.454 8.64h3.972L8.382 3.736 6.454 8.641Z"/><path id="Vector_3" d="M19.538.291h7.476c1.548 0 2.92.35 4.088 1.051a7.358 7.358 0 0 1 2.716 2.803c.643 1.168.935 2.453.935 3.825a8.14 8.14 0 0 1-.935 3.825 7.435 7.435 0 0 1-2.716 2.832c-1.168.7-2.54 1.05-4.088 1.05h-7.476V.292Zm7.476 12.117c.818 0 1.548-.205 2.161-.613a3.832 3.832 0 0 0 1.402-1.635 5.019 5.019 0 0 0 0-4.35 4.01 4.01 0 0 0-1.402-1.636c-.613-.409-1.343-.613-2.161-.613H23.1v8.818h3.913v.029Z"/><path id="Vector_4" d="M35.804 15.678 41.908.29h4.76l6.075 15.387h-3.826l-1.49-3.767h-6.424l-1.46 3.767h-3.739Zm6.454-7.037h3.972l-2.044-4.905-1.928 4.905Z"/><path id="Vector_5" d="M55.342 15.678V.29h10.601c.993 0 1.81.204 2.512.642.7.438 1.226.993 1.577 1.723.35.73.525 1.518.525 2.365 0 .847-.175 1.606-.525 2.307-.35.7-.876 1.255-1.607 1.664-.7.409-1.518.613-2.482.613h-7.038v6.073h-3.563Zm3.563-9.343h7.038c.321 0 .584-.117.76-.321.175-.205.291-.497.291-.847v-.409c0-.35-.087-.642-.292-.847-.175-.204-.438-.32-.759-.32h-7.038v2.744Z"/><path id="Vector_6" d="M72.602.291h3.475l1.11 8.905 2.54-5.956h3.33l2.716 5.956.934-8.905h3.476L88.4 15.678h-3.534l-3.475-8.263-3.417 8.263h-3.563L72.602.29Z"/><path id="Vector_7" d="M92.49 7.97c0-1.4.32-2.685.934-3.912.613-1.226 1.519-2.19 2.687-2.949C97.279.35 98.68 0 100.229 0c1.577 0 2.949.38 4.118 1.11 1.168.759 2.073 1.722 2.686 2.948a8.575 8.575 0 0 1 .935 3.913 8.575 8.575 0 0 1-.935 3.912 7.262 7.262 0 0 1-2.686 2.95c-1.169.758-2.57 1.109-4.118 1.109-1.577 0-2.95-.38-4.118-1.11-1.168-.759-2.074-1.723-2.687-2.949a8.495 8.495 0 0 1-.934-3.912Zm11.827 0c0-.788-.146-1.517-.467-2.218a4.17 4.17 0 0 0-1.402-1.694c-.613-.438-1.343-.642-2.19-.642s-1.577.204-2.19.642a4.178 4.178 0 0 0-1.402 1.694 5.22 5.22 0 0 0-.468 2.219c0 .788.147 1.547.468 2.248.321.7.788 1.256 1.402 1.664.613.409 1.343.643 2.19.643s1.577-.205 2.19-.643c.614-.408 1.081-.992 1.402-1.664.292-.7.467-1.43.467-2.248Z"/><path id="Vector_8" d="M111.297 15.678V.29h10.601c.993 0 1.811.204 2.512.642.701.438 1.226.993 1.577 1.723.35.73.525 1.518.525 2.365 0 1.08-.292 2.044-.905 2.89-.613.847-1.46 1.373-2.57 1.577.029.058.059.088.117.146.029.058.088.117.117.175l3.504 5.84h-4.001l-3.621-6.044h-4.293v6.073h-3.563Zm3.563-9.343h7.038c.321 0 .584-.117.759-.321.176-.205.293-.497.293-.847v-.409c0-.35-.088-.642-.293-.847a1.012 1.012 0 0 0-.759-.32h-7.038v2.744Z"/><path id="Vector_9" d="M130.075.291h3.563v6.657L140.764.29h5.023l-7.009 6.511 6.863 8.876h-4.322l-5.023-6.54-2.658 2.482v4.058h-3.563V.29Z"/></g></g><defs><clipPath id="clip0_863_370"><path fill="#fff" d="M0 0h154.256v16H0z"/></clipPath></defs></svg>