<svg width="155" height="16" viewBox="0 0 155 16" fill="none" xmlns="http://www.w3.org/2000/svg">
<g id="logo" clip-path="url(#clip0_863_370)">
<path id="Vector" d="M151.92 0.145095C153.176 0.115898 154.286 1.22539 154.256 2.51006C154.286 3.76553 153.176 4.87502 151.92 4.84583C150.664 4.87502 149.554 3.76553 149.584 2.51006C149.554 1.22539 150.664 0.115898 151.92 0.145095ZM151.92 0.670642C150.956 0.641445 150.139 1.48816 150.139 2.48086C150.109 3.44437 150.956 4.29108 151.92 4.26188C152.884 4.29108 153.701 3.44437 153.701 2.48086C153.701 1.48816 152.884 0.670642 151.92 0.670642ZM151.073 1.31298H152.066C152.592 1.31298 152.884 1.57575 152.884 1.95531C152.884 2.27648 152.679 2.51006 152.417 2.56845C152.709 2.56845 152.825 2.65604 152.825 2.91882V3.64874H152.241V3.03561C152.241 2.86042 152.183 2.80203 151.978 2.80203H151.599V3.64874H151.015V1.31298H151.073ZM151.978 2.33488C152.183 2.33488 152.3 2.24728 152.3 2.04291C152.3 1.86772 152.183 1.78013 151.949 1.78013H151.628V2.33488H151.978Z" fill="#F5F5F5"/>
<g id="Group">
<path id="Vector_2" d="M0 15.6779L6.10367 0.291016H10.864L16.9384 15.6779H13.1419L11.6525 11.9115H5.22755L3.76734 15.6779H0ZM6.45412 8.64138H10.4259L8.3816 3.73627L6.45412 8.64138Z" fill="#F5F5F5"/>
<path id="Vector_3" d="M19.5376 0.291016H27.0139C28.5617 0.291016 29.9343 0.641381 31.1024 1.34211C32.2706 2.04284 33.1759 2.97715 33.8184 4.14503C34.4609 5.31291 34.753 6.59759 34.753 7.96985C34.753 9.34211 34.4317 10.6268 33.8184 11.7947C33.1759 12.9625 32.2706 13.9261 31.1024 14.6268C29.9343 15.3275 28.5617 15.6779 27.0139 15.6779H19.5376V0.291016ZM27.0139 12.4078C27.8316 12.4078 28.5617 12.2034 29.175 11.7947C29.7883 11.3859 30.2555 10.8604 30.5768 10.1596C30.898 9.4881 31.0732 8.75817 31.0732 7.96985C31.0732 7.21072 30.898 6.4808 30.5768 5.80926C30.2555 5.13773 29.7883 4.58299 29.175 4.17423C28.5617 3.76547 27.8316 3.56109 27.0139 3.56109H23.1005V12.3786H27.0139V12.4078Z" fill="#F5F5F5"/>
<path id="Vector_4" d="M35.8043 15.6779L41.908 0.291016H46.6683L52.7427 15.6779H48.917L47.4276 11.9115H41.0027L39.5425 15.6779H35.8043ZM42.2584 8.64138H46.2302L44.1859 3.73627L42.2584 8.64138Z" fill="#F5F5F5"/>
<path id="Vector_5" d="M55.3419 15.6779V0.291016H65.943C66.936 0.291016 67.7537 0.495395 68.4546 0.933351C69.1555 1.37131 69.6812 1.92605 70.0316 2.65598C70.3821 3.38591 70.5573 4.17423 70.5573 5.02094C70.5573 5.86766 70.3821 6.62678 70.0316 7.32751C69.6812 8.02824 69.1555 8.58299 68.4254 8.99175C67.7245 9.40051 66.9068 9.60489 65.943 9.60489H58.9048V15.6779H55.3419ZM58.9048 6.33481H65.943C66.2643 6.33481 66.5271 6.21802 66.7023 6.01364C66.8776 5.80926 66.9944 5.51729 66.9944 5.16693V4.75817C66.9944 4.4078 66.9068 4.11583 66.7023 3.91145C66.5271 3.70707 66.2643 3.59029 65.943 3.59029H58.9048V6.33481Z" fill="#F5F5F5"/>
<path id="Vector_6" d="M72.6016 0.291016H76.0769L77.1866 9.19613L79.7274 3.23992H83.0567L85.7726 9.19613L86.7072 0.291016H90.1825L88.401 15.6779H84.8673L81.392 7.4151L77.9751 15.6779H74.4122L72.6016 0.291016Z" fill="#F5F5F5"/>
<path id="Vector_7" d="M92.4896 7.9708C92.4896 6.56934 92.8109 5.28467 93.4242 4.05839C94.0374 2.83212 94.9428 1.86861 96.1109 1.10949C97.2791 0.350365 98.6809 0 100.229 0C101.806 0 103.178 0.379562 104.347 1.10949C105.515 1.86861 106.42 2.83212 107.033 4.05839C107.647 5.28467 107.968 6.56934 107.968 7.9708C107.968 9.37226 107.647 10.6569 107.033 11.8832C106.42 13.1095 105.515 14.1022 104.347 14.8321C103.178 15.5912 101.777 15.9416 100.229 15.9416C98.6517 15.9416 97.2791 15.562 96.1109 14.8321C94.9428 14.073 94.0374 13.1095 93.4242 11.8832C92.8109 10.6861 92.4896 9.37226 92.4896 7.9708ZM104.317 7.9708C104.317 7.18248 104.171 6.45255 103.85 5.75182C103.529 5.0511 103.062 4.49635 102.448 4.05839C101.835 3.62044 101.105 3.41606 100.258 3.41606C99.411 3.41606 98.6809 3.62044 98.0676 4.05839C97.4543 4.49635 96.9871 5.0511 96.6658 5.75182C96.3446 6.45255 96.1985 7.18248 96.1985 7.9708C96.1985 8.75912 96.3446 9.51825 96.6658 10.219C96.9871 10.9197 97.4543 11.4745 98.0676 11.8832C98.6809 12.292 99.411 12.5255 100.258 12.5255C101.105 12.5255 101.835 12.3212 102.448 11.8832C103.062 11.4745 103.529 10.8905 103.85 10.219C104.142 9.51825 104.317 8.78832 104.317 7.9708Z" fill="#F5F5F5"/>
<path id="Vector_8" d="M111.297 15.6779V0.291016H121.898C122.891 0.291016 123.709 0.495395 124.41 0.933351C125.111 1.37131 125.636 1.92605 125.987 2.65598C126.337 3.38591 126.512 4.17423 126.512 5.02094C126.512 6.10124 126.22 7.06474 125.607 7.91145C124.994 8.75817 124.147 9.28372 123.037 9.4881C123.066 9.54649 123.096 9.57569 123.154 9.63408C123.183 9.69248 123.242 9.75087 123.271 9.80926L126.775 15.6487H122.774L119.153 9.60489H114.86V15.6779H111.297ZM114.86 6.33481H121.898C122.219 6.33481 122.482 6.21802 122.657 6.01364C122.833 5.80926 122.95 5.51729 122.95 5.16693V4.75817C122.95 4.4078 122.862 4.11583 122.657 3.91145C122.453 3.70707 122.219 3.59029 121.898 3.59029H114.86V6.33481Z" fill="#F5F5F5"/>
<path id="Vector_9" d="M130.075 0.291016H133.638V6.94795L140.764 0.291016H145.787L138.778 6.80196L145.641 15.6779H141.319L136.296 9.13773L133.638 11.6195V15.6779H130.075V0.291016Z" fill="#F5F5F5"/>
</g>
</g>
<defs>
<clipPath id="clip0_863_370">
<rect width="154.256" height="16" fill="white"/>
</clipPath>
</defs>
</svg>
